<svg xmlns="http://www.w3.org/2000/svg" width="22" height="10" viewBox="0 0 22 10" fill="none">
    <path d="M20 4.70703L20.7071 3.99992L21.4142 4.70703L20.7071 5.41414L20 4.70703ZM1 5.70703C0.447716 5.70703 0 5.25932 0 4.70703C0 4.15475 0.447716 3.70703 1 3.70703V4.70703V5.70703ZM16 0.707031L16.7071 -7.55191e-05L20.7071 3.99992L20 4.70703L19.2929 5.41414L15.2929 1.41414L16 0.707031ZM20 4.70703L20.7071 5.41414L16.7071 9.41414L16 8.70703L15.2929 7.99992L19.2929 3.99992L20 4.70703ZM20 4.70703V5.70703H1V4.70703V3.70703H20V4.70703Z" fill="currentColor" stroke-linecap="round" stroke-linejoin="round" stroke-width="var(--icon-stroke-width)"/>
</svg>