<svg aria-hidden="true" xmlns="http://www.w3.org/2000/svg" viewBox="0 0 22 22" fill="none"><path d="M9.182 18.454a.91.91 0 1 1-1.818 0 .91.91 0 0 1 1.818 0Zm7.272 0a.91.91 0 1 1-1.818 0 .91.91 0 0 1 1.819 0Z" fill="currentColor"/><path d="M5.336 6.636H21l-3.636 8.182H6.909L4.636 3H1m8.182 15.454a.91.91 0 1 1-1.818 0 .91.91 0 0 1 1.818 0Zm7.272 0a.91.91 0 1 1-1.818 0 .91.91 0 0 1 1.819 0Z" stroke="currentColor" stroke-width="var(--icon-stroke-width)" stroke-linecap="round" stroke-linejoin="round"/></svg>
