<svg width="14" height="14" viewBox="0 0 14 14" fill="none" xmlns="http://www.w3.org/2000/svg">
    <path d="M6.99998 11C6.58577 11 6.24999 10.6642 6.25 10.25L6.25006 6.74999C6.25007 6.33577 6.58586 5.99999 7.00007 6C7.41428 6.00001 7.75006 6.3358 7.75006 6.75001L7.75 10.25C7.74999 10.6642 7.4142 11 6.99998 11Z"></path>
    <path d="M6 4C6 3.44772 6.44772 3 7 3C7.55228 3 8 3.44772 8 4C8 4.55228 7.55228 5 7 5C6.44772 5 6 4.55228 6 4Z"></path>
    <path fill-rule="evenodd" clip-rule="evenodd" d="M14 7C14 10.866 10.866 14 7 14C3.13401 14 0 10.866 0 7C0 3.13401 3.13401 0 7 0C10.866 0 14 3.13401 14 7ZM12.5 7C12.5 10.0376 10.0376 12.5 7 12.5C3.96243 12.5 1.5 10.0376 1.5 7C1.5 3.96243 3.96243 1.5 7 1.5C10.0376 1.5 12.5 3.96243 12.5 7Z"></path>
</svg>